<?xml version="1.0" standalone="no"?><svg xmlns="http://www.w3.org/2000/svg" viewBox="0 0 1440 320"><path fill="#feff89" fill-opacity="1" d="M0,256L21.8,218.7C43.6,181,87,107,131,69.3C174.5,32,218,32,262,58.7C305.5,85,349,139,393,138.7C436.4,139,480,85,524,96C567.3,107,611,181,655,197.3C698.2,213,742,171,785,133.3C829.1,96,873,64,916,42.7C960,21,1004,11,1047,26.7C1090.9,43,1135,85,1178,106.7C1221.8,128,1265,128,1309,149.3C1352.7,171,1396,213,1418,234.7L1440,256L1440,0L1418.2,0C1396.4,0,1353,0,1309,0C1265.5,0,1222,0,1178,0C1134.5,0,1091,0,1047,0C1003.6,0,960,0,916,0C872.7,0,829,0,785,0C741.8,0,698,0,655,0C610.9,0,567,0,524,0C480,0,436,0,393,0C349.1,0,305,0,262,0C218.2,0,175,0,131,0C87.3,0,44,0,22,0L0,0Z"></path></svg>